<svg xmlns="http://www.w3.org/2000/svg" xmlns:xlink="http://www.w3.org/1999/xlink" width="280" zoomAndPan="magnify" viewBox="0 0 210 276.749989" height="369" preserveAspectRatio="xMidYMid meet" version="1.2"><defs><clipPath id="cdb746faa7"><path d="M 0.09375 40 L 88 40 L 88 223 L 0.09375 223 Z M 0.09375 40 "/></clipPath><filter x="0%" y="0%" width="100%" filterUnits="objectBoundingBox" id="721b07a672" height="100%"><feColorMatrix values="0 0 0 0 1 0 0 0 0 1 0 0 0 0 1 0 0 0 1 0" type="matrix" in="SourceGraphic"/></filter><clipPath id="0e7db89591"><path d="M 0.09375 0.761719 L 87.375 0.761719 L 87.375 182.277344 L 0.09375 182.277344 Z M 0.09375 0.761719 "/></clipPath><clipPath id="31d5035176"><rect x="0" width="88" y="0" height="183"/></clipPath></defs><g id="d149c3920a"><g clip-rule="nonzero" clip-path="url(#cdb746faa7)"><g mask="url(#4b809f509f)" transform="matrix(1,0,0,1,0,40)"><g clip-path="url(#31d5035176)"><g clip-rule="nonzero" clip-path="url(#0e7db89591)"><path style=" stroke:none;fill-rule:nonzero;fill:#ffffff;fill-opacity:1;" d="M -3.683594 182.210938 C -5.535156 182.210938 -7.386719 182.152344 -9.234375 182.035156 C -11.085938 181.917969 -12.925781 181.746094 -14.765625 181.519531 C -16.605469 181.289062 -18.433594 181.003906 -20.253906 180.664062 C -22.074219 180.324219 -23.882812 179.925781 -25.679688 179.476562 C -27.472656 179.023438 -29.253906 178.515625 -31.019531 177.957031 C -32.785156 177.394531 -34.53125 176.78125 -36.257812 176.113281 C -37.988281 175.445312 -39.691406 174.726562 -41.375 173.953125 C -43.058594 173.179688 -44.71875 172.355469 -46.351562 171.484375 C -47.984375 170.609375 -49.585938 169.6875 -51.164062 168.714844 C -52.742188 167.742188 -54.285156 166.722656 -55.800781 165.652344 C -57.3125 164.585938 -58.792969 163.476562 -60.238281 162.316406 C -61.683594 161.160156 -63.09375 159.957031 -64.464844 158.714844 C -65.835938 157.46875 -67.171875 156.183594 -68.464844 154.859375 C -69.757812 153.535156 -71.007812 152.167969 -72.21875 150.765625 C -73.425781 149.363281 -74.59375 147.925781 -75.714844 146.453125 C -76.835938 144.976562 -77.910156 143.472656 -78.941406 141.929688 C -79.96875 140.390625 -80.949219 138.820312 -81.882812 137.222656 C -82.816406 135.621094 -83.699219 133.996094 -84.53125 132.339844 C -85.367188 130.6875 -86.148438 129.007812 -86.878906 127.304688 C -87.609375 125.605469 -88.285156 123.882812 -88.910156 122.136719 C -89.535156 120.394531 -90.105469 118.632812 -90.625 116.855469 C -91.140625 115.074219 -91.601562 113.28125 -92.007812 111.476562 C -92.414062 109.667969 -92.765625 107.851562 -93.0625 106.023438 C -93.359375 104.195312 -93.597656 102.359375 -93.78125 100.515625 C -93.964844 98.671875 -94.089844 96.824219 -94.160156 94.976562 C -94.230469 93.125 -94.242188 91.273438 -94.199219 89.421875 C -94.15625 87.570312 -94.054688 85.722656 -93.898438 83.875 C -93.742188 82.03125 -93.527344 80.191406 -93.257812 78.359375 C -92.988281 76.527344 -92.664062 74.703125 -92.28125 72.890625 C -91.902344 71.078125 -91.464844 69.28125 -90.972656 67.496094 C -90.480469 65.707031 -89.933594 63.941406 -89.335938 62.1875 C -88.734375 60.433594 -88.082031 58.703125 -87.375 56.992188 C -86.667969 55.277344 -85.910156 53.589844 -85.101562 51.925781 C -84.292969 50.257812 -83.433594 48.617188 -82.523438 47.007812 C -81.613281 45.394531 -80.652344 43.808594 -79.644531 42.253906 C -78.636719 40.699219 -77.585938 39.179688 -76.484375 37.6875 C -75.382812 36.199219 -74.238281 34.746094 -73.046875 33.324219 C -71.859375 31.90625 -70.625 30.523438 -69.351562 29.179688 C -68.078125 27.835938 -66.761719 26.53125 -65.410156 25.269531 C -64.054688 24.003906 -62.664062 22.785156 -61.234375 21.605469 C -59.804688 20.429688 -58.339844 19.296875 -56.84375 18.207031 C -55.34375 17.117188 -53.8125 16.078125 -52.25 15.082031 C -50.6875 14.089844 -49.097656 13.140625 -47.476562 12.246094 C -45.855469 11.347656 -44.210938 10.5 -42.539062 9.707031 C -40.863281 8.910156 -39.167969 8.164062 -37.453125 7.472656 C -35.734375 6.78125 -33.996094 6.140625 -32.238281 5.554688 C -30.480469 4.96875 -28.707031 4.4375 -26.917969 3.960938 C -25.128906 3.484375 -23.328125 3.0625 -21.511719 2.695312 C -19.695312 2.328125 -17.871094 2.019531 -16.035156 1.765625 C -14.203125 1.507812 -12.363281 1.3125 -10.515625 1.167969 C -8.667969 1.027344 -6.820312 0.941406 -4.96875 0.914062 C -3.113281 0.886719 -1.265625 0.914062 0.585938 1 C 2.4375 1.082031 4.28125 1.226562 6.125 1.421875 C 7.964844 1.621094 9.800781 1.875 11.625 2.183594 C 13.449219 2.496094 15.265625 2.863281 17.070312 3.285156 C 18.871094 3.707031 20.660156 4.183594 22.4375 4.714844 C 24.210938 5.246094 25.964844 5.828125 27.703125 6.46875 C 29.441406 7.109375 31.160156 7.800781 32.855469 8.542969 C 34.550781 9.289062 36.222656 10.082031 37.871094 10.929688 C 39.519531 11.777344 41.136719 12.671875 42.730469 13.617188 C 44.324219 14.566406 45.886719 15.558594 47.417969 16.601562 C 48.949219 17.640625 50.445312 18.730469 51.910156 19.863281 C 53.375 20.996094 54.804688 22.171875 56.195312 23.394531 C 57.589844 24.617188 58.945312 25.878906 60.257812 27.183594 C 61.574219 28.488281 62.847656 29.828125 64.082031 31.210938 C 65.3125 32.59375 66.503906 34.011719 67.648438 35.46875 C 68.796875 36.921875 69.894531 38.410156 70.949219 39.933594 C 72.003906 41.457031 73.011719 43.007812 73.972656 44.59375 C 74.929688 46.179688 75.839844 47.789062 76.703125 49.429688 C 77.5625 51.070312 78.371094 52.734375 79.132812 54.425781 C 79.890625 56.113281 80.597656 57.824219 81.25 59.558594 C 81.902344 61.292969 82.503906 63.042969 83.050781 64.8125 C 83.597656 66.582031 84.089844 68.367188 84.523438 70.167969 C 84.960938 71.964844 85.34375 73.777344 85.667969 75.601562 C 85.996094 77.425781 86.265625 79.253906 86.480469 81.09375 C 86.691406 82.933594 86.851562 84.78125 86.949219 86.628906 C 87.050781 88.480469 87.09375 90.328125 87.082031 92.179688 C 87.070312 94.035156 87 95.882812 86.875 97.730469 C 86.75 99.578125 86.566406 101.421875 86.328125 103.257812 C 86.085938 105.09375 85.792969 106.921875 85.441406 108.742188 C 85.089844 110.558594 84.683594 112.367188 84.222656 114.160156 C 83.761719 115.953125 83.246094 117.730469 82.671875 119.492188 C 82.101562 121.253906 81.480469 122.996094 80.800781 124.722656 C 80.125 126.445312 79.394531 128.144531 78.613281 129.824219 C 77.832031 131.503906 76.996094 133.15625 76.113281 134.785156 C 75.230469 136.414062 74.300781 138.011719 73.316406 139.585938 C 72.335938 141.15625 71.308594 142.695312 70.234375 144.203125 C 69.15625 145.710938 68.035156 147.183594 66.871094 148.621094 C 65.703125 150.0625 64.496094 151.464844 63.242188 152.828125 C 61.992188 154.195312 60.699219 155.519531 59.367188 156.804688 C 58.035156 158.089844 56.664062 159.335938 55.253906 160.535156 C 53.84375 161.738281 52.398438 162.894531 50.917969 164.007812 C 49.4375 165.121094 47.925781 166.1875 46.378906 167.210938 C 44.835938 168.230469 43.257812 169.203125 41.652344 170.125 C 40.046875 171.050781 38.417969 171.925781 36.757812 172.75 C 35.097656 173.570312 33.417969 174.34375 31.710938 175.066406 C 26.113281 177.433594 20.332031 179.222656 14.375 180.425781 C 8.414062 181.628906 2.394531 182.222656 -3.683594 182.210938 Z M -3.683594 3.511719 C -52.082031 3.511719 -91.453125 42.882812 -91.453125 91.277344 C -91.453125 139.675781 -52.082031 179.046875 -3.683594 179.046875 C 44.710938 179.046875 84.085938 139.675781 84.085938 91.277344 C 84.085938 42.882812 44.710938 3.511719 -3.683594 3.511719 Z M -3.683594 167.40625 C -6.015625 167.40625 -8.34375 167.296875 -10.664062 167.082031 C -12.984375 166.871094 -15.292969 166.550781 -17.582031 166.125 C -19.875 165.699219 -22.144531 165.167969 -24.386719 164.535156 C -26.628906 163.902344 -28.839844 163.167969 -31.015625 162.328125 C -33.191406 161.492188 -35.324219 160.558594 -37.414062 159.523438 C -39.503906 158.492188 -41.539062 157.367188 -43.527344 156.144531 C -45.511719 154.925781 -47.441406 153.617188 -49.304688 152.21875 C -51.171875 150.824219 -52.96875 149.34375 -54.699219 147.78125 C -56.429688 146.21875 -58.085938 144.582031 -59.664062 142.867188 C -61.246094 141.152344 -62.742188 139.371094 -64.160156 137.519531 C -65.574219 135.667969 -66.902344 133.753906 -68.144531 131.78125 C -69.382812 129.808594 -70.53125 127.78125 -71.585938 125.703125 C -72.640625 123.621094 -73.597656 121.5 -74.457031 119.332031 C -75.316406 117.164062 -76.074219 114.964844 -76.730469 112.726562 C -77.386719 110.492188 -77.941406 108.230469 -78.390625 105.941406 C -78.839844 103.652344 -79.183594 101.351562 -79.421875 99.03125 C -79.441406 98.808594 -79.417969 98.59375 -79.347656 98.378906 C -79.28125 98.167969 -79.167969 97.976562 -79.019531 97.8125 C -78.871094 97.644531 -78.691406 97.515625 -78.488281 97.425781 C -78.285156 97.335938 -78.070312 97.289062 -77.847656 97.289062 L -33.882812 97.289062 C -33.523438 97.289062 -33.199219 97.402344 -32.910156 97.625 C -32.625 97.847656 -32.4375 98.136719 -32.351562 98.488281 C -31.949219 100.074219 -31.425781 101.613281 -30.769531 103.113281 C -30.113281 104.609375 -29.339844 106.042969 -28.449219 107.414062 C -27.554688 108.78125 -26.554688 110.070312 -25.449219 111.273438 C -24.34375 112.476562 -23.144531 113.582031 -21.855469 114.585938 C -20.566406 115.589844 -19.203125 116.480469 -17.765625 117.261719 C -16.328125 118.039062 -14.839844 118.695312 -13.292969 119.226562 C -11.746094 119.757812 -10.167969 120.15625 -8.554688 120.425781 C -6.941406 120.695312 -5.320312 120.832031 -3.683594 120.832031 C -2.050781 120.832031 -0.425781 120.695312 1.183594 120.425781 C 2.796875 120.15625 4.375 119.757812 5.921875 119.226562 C 7.46875 118.695312 8.960938 118.039062 10.398438 117.261719 C 11.835938 116.480469 13.199219 115.589844 14.488281 114.585938 C 15.777344 113.582031 16.972656 112.476562 18.078125 111.273438 C 19.1875 110.070312 20.183594 108.78125 21.078125 107.414062 C 21.972656 106.042969 22.746094 104.609375 23.398438 103.113281 C 24.054688 101.613281 24.582031 100.074219 24.980469 98.488281 C 25.066406 98.136719 25.253906 97.847656 25.542969 97.625 C 25.828125 97.402344 26.152344 97.289062 26.515625 97.289062 L 70.476562 97.289062 C 70.699219 97.289062 70.914062 97.335938 71.117188 97.425781 C 71.324219 97.515625 71.5 97.644531 71.648438 97.8125 C 71.800781 97.976562 71.910156 98.167969 71.980469 98.378906 C 72.050781 98.59375 72.074219 98.808594 72.050781 99.03125 C 71.8125 101.351562 71.46875 103.652344 71.019531 105.941406 C 70.570312 108.230469 70.019531 110.492188 69.359375 112.726562 C 68.703125 114.964844 67.945312 117.164062 67.085938 119.332031 C 66.226562 121.5 65.269531 123.621094 64.214844 125.703125 C 63.160156 127.78125 62.015625 129.808594 60.773438 131.78125 C 59.535156 133.753906 58.207031 135.667969 56.789062 137.519531 C 55.375 139.371094 53.875 141.152344 52.296875 142.867188 C 50.714844 144.582031 49.0625 146.21875 47.332031 147.78125 C 45.601562 149.34375 43.800781 150.824219 41.9375 152.21875 C 40.070312 153.617188 38.144531 154.925781 36.15625 156.144531 C 34.171875 157.367188 32.132812 158.492188 30.042969 159.523438 C 27.953125 160.558594 25.820312 161.492188 23.644531 162.328125 C 21.46875 163.167969 19.257812 163.902344 17.015625 164.535156 C 14.773438 165.167969 12.503906 165.699219 10.214844 166.125 C 7.921875 166.550781 5.613281 166.871094 3.292969 167.082031 C 0.972656 167.296875 -1.355469 167.40625 -3.683594 167.40625 Z M -76.074219 100.453125 C -71.515625 136.941406 -40.699219 164.242188 -3.683594 164.242188 C 33.328125 164.242188 64.148438 136.941406 68.707031 100.453125 L 27.722656 100.453125 C 26.765625 103.714844 25.335938 106.75 23.433594 109.566406 C 21.535156 112.382812 19.253906 114.84375 16.589844 116.953125 C 15.875 117.519531 15.136719 118.054688 14.378906 118.558594 C 13.617188 119.0625 12.835938 119.53125 12.039062 119.96875 C 11.238281 120.40625 10.421875 120.8125 9.589844 121.179688 C 8.753906 121.550781 7.90625 121.886719 7.046875 122.183594 C 6.183594 122.484375 5.3125 122.746094 4.429688 122.972656 C 3.546875 123.199219 2.65625 123.386719 1.757812 123.539062 C 0.859375 123.691406 -0.046875 123.804688 -0.953125 123.878906 C -1.863281 123.957031 -2.773438 123.996094 -3.683594 123.996094 C -4.597656 123.996094 -5.507812 123.957031 -6.414062 123.878906 C -7.324219 123.804688 -8.226562 123.691406 -9.125 123.539062 C -10.027344 123.386719 -10.917969 123.199219 -11.800781 122.972656 C -12.683594 122.746094 -13.554688 122.484375 -14.417969 122.183594 C -15.277344 121.886719 -16.125 121.550781 -16.957031 121.179688 C -17.792969 120.8125 -18.609375 120.40625 -19.40625 119.96875 C -20.207031 119.53125 -20.988281 119.0625 -21.746094 118.558594 C -22.507812 118.054688 -23.246094 117.519531 -23.960938 116.953125 C -26.621094 114.84375 -28.90625 112.382812 -30.804688 109.566406 C -32.703125 106.75 -34.132812 103.714844 -35.09375 100.453125 Z M -3.683594 109.820312 C -4.421875 109.820312 -5.15625 109.777344 -5.890625 109.6875 C -6.621094 109.601562 -7.34375 109.46875 -8.0625 109.292969 C -8.777344 109.121094 -9.480469 108.902344 -10.171875 108.644531 C -10.863281 108.386719 -11.535156 108.089844 -12.191406 107.75 C -12.84375 107.410156 -13.476562 107.035156 -14.085938 106.621094 C -14.699219 106.207031 -15.28125 105.757812 -15.835938 105.273438 C -16.394531 104.789062 -16.917969 104.273438 -17.414062 103.730469 C -17.910156 103.183594 -18.371094 102.609375 -18.796875 102.007812 C -19.222656 101.40625 -19.613281 100.78125 -19.964844 100.132812 C -20.316406 99.484375 -20.628906 98.820312 -20.902344 98.132812 C -21.171875 97.449219 -21.402344 96.75 -21.59375 96.035156 C -21.78125 95.324219 -21.925781 94.601562 -22.03125 93.871094 C -22.132812 93.140625 -22.191406 92.410156 -22.207031 91.671875 C -22.222656 90.933594 -22.195312 90.199219 -22.121094 89.464844 C -22.050781 88.730469 -21.933594 88.003906 -21.773438 87.285156 C -21.617188 86.566406 -21.414062 85.855469 -21.171875 85.160156 C -20.925781 84.464844 -20.644531 83.785156 -20.316406 83.125 C -19.992188 82.460938 -19.628906 81.824219 -19.230469 81.203125 C -18.828125 80.585938 -18.390625 79.992188 -17.921875 79.425781 C -17.449219 78.859375 -16.945312 78.324219 -16.410156 77.816406 C -15.875 77.308594 -15.308594 76.835938 -14.71875 76.398438 C -14.125 75.957031 -13.507812 75.554688 -12.867188 75.191406 C -12.226562 74.824219 -11.566406 74.5 -10.890625 74.210938 C -10.210938 73.925781 -9.515625 73.679688 -8.808594 73.476562 C -8.097656 73.273438 -7.378906 73.109375 -6.652344 72.992188 C -5.925781 72.875 -5.191406 72.800781 -4.457031 72.769531 C -3.71875 72.738281 -2.984375 72.75 -2.25 72.808594 C -1.515625 72.863281 -0.785156 72.964844 -0.0625 73.109375 C 0.660156 73.25 1.375 73.4375 2.074219 73.667969 C 2.777344 73.894531 3.460938 74.164062 4.128906 74.476562 C 4.796875 74.785156 5.445312 75.136719 6.074219 75.523438 C 6.699219 75.910156 7.300781 76.335938 7.878906 76.796875 C 8.453125 77.253906 9 77.746094 9.519531 78.273438 C 10.035156 78.796875 10.519531 79.351562 10.972656 79.933594 C 11.425781 80.515625 11.839844 81.125 12.21875 81.757812 C 12.597656 82.390625 12.9375 83.042969 13.238281 83.714844 C 13.539062 84.386719 13.800781 85.074219 14.019531 85.78125 C 14.238281 86.484375 14.414062 87.199219 14.546875 87.921875 C 14.683594 88.648438 14.773438 89.378906 14.820312 90.113281 C 14.867188 90.851562 14.867188 91.585938 14.828125 92.324219 C 14.785156 93.058594 14.703125 93.789062 14.574219 94.515625 C 14.445312 95.242188 14.273438 95.957031 14.058594 96.664062 C 13.84375 97.367188 13.589844 98.058594 13.292969 98.734375 C 12.996094 99.410156 12.664062 100.066406 12.289062 100.699219 C 11.914062 101.335938 11.503906 101.945312 11.054688 102.53125 C 10.609375 103.117188 10.125 103.675781 9.613281 104.203125 C 9.097656 104.730469 8.554688 105.230469 7.984375 105.691406 C 7.410156 106.15625 6.8125 106.585938 6.1875 106.976562 C 3.171875 108.875 -0.121094 109.824219 -3.683594 109.820312 Z M -3.683594 75.902344 C -4.230469 75.902344 -4.769531 75.933594 -5.3125 75.988281 C -5.851562 76.046875 -6.390625 76.132812 -6.921875 76.25 C -7.453125 76.363281 -7.976562 76.507812 -8.492188 76.679688 C -9.007812 76.847656 -9.515625 77.046875 -10.011719 77.269531 C -10.503906 77.496094 -10.988281 77.746094 -11.457031 78.019531 C -11.925781 78.296875 -12.378906 78.597656 -12.816406 78.921875 C -13.253906 79.242188 -13.671875 79.589844 -14.070312 79.957031 C -14.472656 80.328125 -14.851562 80.714844 -15.210938 81.125 C -15.570312 81.53125 -15.90625 81.957031 -16.21875 82.402344 C -16.53125 82.847656 -16.820312 83.304688 -17.085938 83.78125 C -17.351562 84.257812 -17.589844 84.742188 -17.804688 85.246094 C -18.015625 85.746094 -18.203125 86.253906 -18.363281 86.773438 C -18.519531 87.296875 -18.652344 87.824219 -18.753906 88.355469 C -18.859375 88.890625 -18.933594 89.429688 -18.976562 89.96875 C -19.023438 90.511719 -19.039062 91.054688 -19.027344 91.597656 C -19.015625 92.140625 -18.976562 92.683594 -18.90625 93.222656 C -18.835938 93.761719 -18.738281 94.296875 -18.613281 94.824219 C -18.488281 95.355469 -18.335938 95.875 -18.152344 96.390625 C -17.972656 96.902344 -17.761719 97.402344 -17.527344 97.894531 C -17.292969 98.382812 -17.035156 98.859375 -16.75 99.324219 C -16.464844 99.789062 -16.152344 100.234375 -15.820312 100.664062 C -15.488281 101.09375 -15.132812 101.503906 -14.757812 101.898438 C -14.382812 102.289062 -13.984375 102.660156 -13.570312 103.011719 C -13.152344 103.363281 -12.71875 103.691406 -12.269531 103.996094 C -11.820312 104.300781 -11.351562 104.578125 -10.871094 104.832031 C -10.390625 105.089844 -9.898438 105.316406 -9.394531 105.519531 C -8.890625 105.722656 -8.375 105.898438 -7.851562 106.046875 C -7.328125 106.195312 -6.800781 106.3125 -6.265625 106.40625 C -5.726562 106.496094 -5.1875 106.5625 -4.644531 106.59375 C -4.101562 106.628906 -3.558594 106.636719 -3.015625 106.613281 C -2.472656 106.589844 -1.933594 106.539062 -1.394531 106.457031 C -0.855469 106.375 -0.324219 106.269531 0.203125 106.128906 C 0.726562 105.992188 1.246094 105.828125 1.753906 105.636719 C 2.261719 105.445312 2.761719 105.226562 3.246094 104.980469 C 3.730469 104.738281 4.203125 104.46875 4.660156 104.171875 C 5.117188 103.878906 5.558594 103.558594 5.980469 103.21875 C 6.402344 102.875 6.808594 102.511719 7.191406 102.128906 C 7.578125 101.742188 7.9375 101.339844 8.28125 100.917969 C 8.621094 100.492188 8.941406 100.054688 9.234375 99.597656 C 9.53125 99.140625 9.800781 98.667969 10.046875 98.183594 C 10.289062 97.695312 10.507812 97.199219 10.703125 96.691406 C 10.894531 96.183594 11.058594 95.664062 11.195312 95.136719 C 11.332031 94.613281 11.441406 94.082031 11.523438 93.542969 C 11.601562 93.003906 11.65625 92.464844 11.679688 91.921875 C 11.703125 91.378906 11.695312 90.835938 11.660156 90.292969 C 11.625 89.75 11.5625 89.210938 11.472656 88.671875 C 11.378906 88.136719 11.261719 87.605469 11.113281 87.082031 C 10.964844 86.5625 10.789062 86.046875 10.585938 85.542969 C 10.304688 84.832031 9.96875 84.148438 9.585938 83.488281 C 9.199219 82.832031 8.765625 82.203125 8.289062 81.609375 C 7.808594 81.015625 7.289062 80.457031 6.726562 79.941406 C 6.164062 79.425781 5.566406 78.953125 4.933594 78.527344 C 4.300781 78.097656 3.640625 77.722656 2.953125 77.390625 C 2.261719 77.0625 1.550781 76.789062 0.820312 76.566406 C 0.0898438 76.34375 -0.652344 76.175781 -1.40625 76.066406 C -2.160156 75.953125 -2.921875 75.898438 -3.683594 75.902344 Z M 70.59375 86.53125 L 26.804688 86.53125 C 26.429688 86.53125 26.097656 86.414062 25.804688 86.175781 C 25.515625 85.941406 25.332031 85.636719 25.253906 85.269531 C 22.4375 71.628906 10.269531 61.726562 -3.683594 61.726562 C -17.636719 61.726562 -29.808594 71.628906 -32.625 85.269531 C -32.699219 85.636719 -32.882812 85.941406 -33.175781 86.175781 C -33.464844 86.414062 -33.800781 86.53125 -34.175781 86.53125 L -77.964844 86.53125 C -78.183594 86.53125 -78.398438 86.488281 -78.601562 86.398438 C -78.800781 86.3125 -78.980469 86.183594 -79.128906 86.023438 C -79.277344 85.859375 -79.390625 85.671875 -79.460938 85.464844 C -79.53125 85.253906 -79.558594 85.039062 -79.539062 84.820312 C -77.949219 65.871094 -69.351562 48.304688 -55.332031 35.351562 C -53.59375 33.746094 -51.785156 32.226562 -49.902344 30.789062 C -48.023438 29.351562 -46.078125 28.007812 -44.074219 26.75 C -42.066406 25.496094 -40.007812 24.335938 -37.890625 23.269531 C -35.777344 22.207031 -33.617188 21.246094 -31.414062 20.382812 C -29.210938 19.519531 -26.96875 18.761719 -24.695312 18.109375 C -22.421875 17.457031 -20.121094 16.910156 -17.792969 16.472656 C -15.46875 16.035156 -13.125 15.703125 -10.769531 15.484375 C -8.414062 15.265625 -6.050781 15.152344 -3.683594 15.152344 C -1.316406 15.152344 1.042969 15.265625 3.398438 15.484375 C 5.757812 15.703125 8.097656 16.035156 10.425781 16.472656 C 12.75 16.910156 15.050781 17.457031 17.324219 18.109375 C 19.601562 18.761719 21.839844 19.519531 24.042969 20.382812 C 26.25 21.246094 28.40625 22.207031 30.523438 23.269531 C 32.636719 24.335938 34.695312 25.496094 36.703125 26.75 C 38.710938 28.007812 40.652344 29.351562 42.535156 30.789062 C 44.414062 32.226562 46.222656 33.746094 47.964844 35.351562 C 61.980469 48.304688 70.578125 65.871094 72.171875 84.820312 C 72.1875 85.039062 72.164062 85.253906 72.089844 85.464844 C 72.019531 85.671875 71.910156 85.859375 71.757812 86.023438 C 71.609375 86.183594 71.433594 86.3125 71.230469 86.398438 C 71.027344 86.488281 70.816406 86.53125 70.59375 86.53125 Z M 28.066406 83.367188 L 68.851562 83.367188 C 64.890625 46.753906 33.359375 18.316406 -3.683594 18.316406 C -40.730469 18.316406 -72.261719 46.753906 -76.222656 83.367188 L -35.4375 83.367188 C -34.996094 81.609375 -34.417969 79.898438 -33.695312 78.238281 C -32.972656 76.574219 -32.117188 74.984375 -31.128906 73.464844 C -30.140625 71.945312 -29.035156 70.515625 -27.808594 69.179688 C -26.585938 67.84375 -25.257812 66.617188 -23.832031 65.5 C -22.402344 64.386719 -20.890625 63.394531 -19.296875 62.53125 C -17.707031 61.664062 -16.050781 60.9375 -14.339844 60.347656 C -12.625 59.757812 -10.875 59.3125 -9.085938 59.015625 C -7.296875 58.714844 -5.496094 58.566406 -3.683594 58.566406 C -1.871094 58.566406 -0.0703125 58.714844 1.714844 59.015625 C 3.503906 59.3125 5.253906 59.757812 6.96875 60.347656 C 8.683594 60.9375 10.335938 61.664062 11.929688 62.53125 C 13.523438 63.394531 15.03125 64.386719 16.460938 65.5 C 17.890625 66.617188 19.214844 67.84375 20.441406 69.179688 C 21.664062 70.515625 22.769531 71.945312 23.757812 73.464844 C 24.746094 74.984375 25.601562 76.574219 26.324219 78.238281 C 27.046875 79.898438 27.628906 81.609375 28.066406 83.367188 Z M 28.066406 83.367188 "/></g></g><mask id="4b809f509f"><g filter="url(#721b07a672)"><rect x="0" width="210" y="0" height="276.749989" style="fill:#000000;fill-opacity:0.19;stroke:none;"/></g></mask></g></g></g></svg>